<?xml version="1.0" encoding="UTF-8"?>
<svg id="Layer_1" xmlns="http://www.w3.org/2000/svg" version="1.1" viewBox="0 0 38 34">
  <!-- Generator: Adobe Illustrator 29.1.0, SVG Export Plug-In . SVG Version: 2.1.0 Build 142)  -->
  <defs>
    <style>
      .st0 {
        fill: #231f20;
      }

      .st1 {
        fill: #82bc4f;
      }
    </style>
  </defs>
  <g>
    <path class="st1" d="M15.3,29.7c-.3,0-.7,0-1-.2-.8-.3-1.4-.8-1.8-1.5-.4-.7-.4-1.6-.2-2.4C19.3,4.3,19.4,4.2,20,3.6c.6-.6,1.4-1,2.3-1s1.5.3,2.1.8c1,.9,1.3,2.4.7,3.6-.5,1.2-3.9,11.4-6.9,20.5-.4,1.3-1.6,2.1-2.9,2.1Z"/>
    <path class="st0" d="M22.3,4.1c.4,0,.8.1,1.1.4.5.5.7,1.3.3,1.9-.5,1.2-4.4,12.9-6.9,20.7-.2.7-.8,1.1-1.5,1.1s-.3,0-.5,0c-.8-.3-1.3-1.2-1-2,6.9-21,7.1-21.2,7.4-21.5.3-.3.7-.5,1.2-.5M22.3,1.1h0c-1.3,0-2.5.5-3.4,1.5-.8.9-.9,1-8,22.6-.8,2.4.5,5,2.9,5.8.5.2.9.2,1.4.2,2,0,3.7-1.3,4.4-3.2,3-9.1,6.3-19.1,6.8-20.4.8-1.8.4-4-1.1-5.3-.8-.8-1.9-1.2-3.1-1.2h0Z"/>
  </g>
  <g>
    <path class="st1" d="M12.3,25.1c-.8,0-1.6-.3-2.2-.8l-6.4-5.3c-.8-.7-1.3-1.7-1.3-2.7,0-1.1.5-2,1.3-2.7,6.9-5.5,7.4-5.8,7.7-6,.5-.3,1.1-.4,1.6-.4,1.3,0,2.5.7,3.1,1.9.9,1.7.3,3.7-1.3,4.7-.2.1-1.3,1-3.4,2.6l3,2.5c.7.6,1.2,1.4,1.3,2.4,0,.9-.2,1.8-.8,2.6-.7.8-1.7,1.3-2.7,1.3Z"/>
    <path class="st0" d="M13,8.7c.7,0,1.4.4,1.8,1.1.5,1,.2,2.1-.8,2.7-.4.3-2.6,2-5,3.9l4.5,3.7c.9.7,1,2,.3,2.8-.4.5-1,.7-1.5.7s-.9-.1-1.3-.5l-6.4-5.3c-.5-.4-.7-1-.7-1.6,0-.6.3-1.2.7-1.5,6.8-5.4,7.3-5.7,7.5-5.8.3-.2.6-.2.9-.2M13,5.7h0c-.8,0-1.6.2-2.3.6-.4.2-.9.5-8,6.1-1.2.9-1.9,2.4-1.9,3.9,0,1.5.7,2.9,1.8,3.9l6.4,5.3c.9.7,2,1.1,3.2,1.1s2.9-.7,3.9-1.8c.8-1,1.2-2.3,1.1-3.7-.1-1.3-.8-2.5-1.8-3.4l-1.6-1.3c1-.8,1.6-1.3,1.8-1.4,2.2-1.4,3-4.2,1.8-6.6-.9-1.6-2.6-2.7-4.4-2.7h0Z"/>
  </g>
  <g>
    <path class="st1" d="M25.7,26.9c-1.1,0-2-.5-2.7-1.3-.6-.7-.9-1.6-.8-2.6,0-.9.5-1.8,1.3-2.4l3-2.5c-2-1.6-3.2-2.5-3.4-2.7-1.5-.9-2.1-2.9-1.3-4.6.6-1.2,1.8-1.9,3.1-1.9s1.1.1,1.6.4c.3.2.8.4,7.7,6,.8.7,1.3,1.6,1.3,2.7s-.5,2.1-1.3,2.7l-6.4,5.3c-.6.5-1.4.8-2.2.8Z"/>
    <path class="st0" d="M25,10.6c.3,0,.6,0,.9.2.2,0,.7.4,7.5,5.8.5.4.7.9.8,1.5,0,.6-.3,1.2-.7,1.6l-6.4,5.3c-.4.3-.8.5-1.3.5s-1.1-.2-1.5-.7c-.7-.9-.6-2.1.3-2.8l4.5-3.7c-2.4-1.9-4.6-3.6-5-3.9-.9-.5-1.3-1.7-.8-2.7.4-.7,1.1-1.1,1.8-1.1M25,7.6h0c-1.9,0-3.6,1-4.4,2.7-1.2,2.3-.4,5.2,1.8,6.6.2.1.8.6,1.8,1.4l-1.6,1.3c-1,.8-1.7,2-1.8,3.4-.1,1.3.3,2.6,1.1,3.7,1,1.2,2.4,1.8,3.9,1.8s2.3-.4,3.2-1.1l6.4-5.3c1.2-1,1.8-2.4,1.8-3.9,0-1.5-.7-2.9-1.9-3.9-7-5.6-7.5-5.9-8-6.1-.7-.4-1.5-.6-2.3-.6h0Z"/>
  </g>
  <path class="st1" d="M15.3,28.2c-.2,0-.3,0-.5,0-.8-.3-1.3-1.2-1-2,6.9-21,7.1-21.2,7.4-21.5.6-.6,1.6-.7,2.2-.1.5.5.7,1.3.3,1.9-.5,1.2-4.4,12.9-6.9,20.7-.2.7-.8,1.1-1.5,1.1Z"/>
  <polygon class="st0" points="24.8 17.3 21.9 16.4 21.2 19.3 22.6 20.6 25.5 18.5 24.8 17.3"/>
</svg>