<?xml version="1.0" encoding="UTF-8"?>
<svg id="Layer_1" xmlns="http://www.w3.org/2000/svg" version="1.1" viewBox="0 0 32 32">
  <!-- Generator: Adobe Illustrator 29.1.0, SVG Export Plug-In . SVG Version: 2.1.0 Build 142)  -->
  <defs>
    <style>
      .st0 {
        fill: #3996db;
      }
    </style>
  </defs>
  <path class="st0" d="M5.4,4l1.9,21.6,8.6,2.4,8.7-2.4,1.9-21.6H5.4ZM22.6,8.9l-.6,7.2h0s0,.1,0,.1h0s-.5,5-.5,5v.4c0,0-5.5,1.5-5.5,1.5h0s-5.4-1.5-5.4-1.5l-.4-4.2h2.7l.2,2.1,2.9.8h0s0,0,0,0l3-.8.3-3.4h-6.2v-.6c0,0-.2-1.4-.2-1.4v-.7c0,0,6.6,0,6.6,0l.2-2.7h-10.1v-.6c0,0-.2-1.4-.2-1.4v-.7c0,0,13.2,0,13.2,0v.7Z"/>
</svg>