<?xml version="1.0" encoding="UTF-8"?>
<svg id="Layer_1" xmlns="http://www.w3.org/2000/svg" version="1.1" viewBox="0 0 32 32">
  <!-- Generator: Adobe Illustrator 29.1.0, SVG Export Plug-In . SVG Version: 2.1.0 Build 142)  -->
  <defs>
    <style>
      .st0 {
        fill-rule: evenodd;
      }

      .st0, .st1 {
        fill: #c0c4ce;
      }
    </style>
  </defs>
  <path class="st0" d="M16,3.3c-7.2,0-13,5.8-13,13s3.7,10.6,8.9,12.3c.6.1.9-.3.9-.6s0-1.3,0-2.4c-3.6.8-4.4-1.5-4.4-1.5-.6-1.5-1.4-1.9-1.4-1.9-1.2-.8,0-.8,0-.8,1.3,0,2,1.3,2,1.3,1.2,2,3,1.4,3.8,1.1.1-.8.5-1.4.8-1.7-2.9-.3-5.9-1.4-5.9-6.4s.5-2.6,1.3-3.5c-.1-.3-.6-1.6.1-3.4,0,0,1.1-.3,3.6,1.3,1-.3,2.1-.4,3.3-.4,1.1,0,2.2.1,3.3.4,2.5-1.7,3.6-1.3,3.6-1.3.7,1.8.3,3.1.1,3.4.8.9,1.3,2.1,1.3,3.5,0,5-3,6.1-5.9,6.4.5.4.9,1.2.9,2.4,0,1.7,0,3.1,0,3.6s.2.8.9.6c5.2-1.7,8.9-6.6,8.9-12.3,0-7.2-5.8-13-13-13Z"/>
  <path class="st1" d="M7.9,22c0,0-.1,0-.2,0,0,0-.1-.1-.1-.2,0,0,.1,0,.2,0,0,0,.1.1.1.2ZM8.5,22.6c0,0-.2,0-.3,0,0,0-.1-.2,0-.3,0,0,.2,0,.3,0,0,0,.1.2,0,.3ZM9,23.3c0,0-.2,0-.3-.1,0-.1,0-.3,0-.3,0,0,.2,0,.3.1,0,.1,0,.3,0,.3ZM9.7,24c0,0-.2,0-.3,0-.1-.1-.1-.3,0-.3,0,0,.2,0,.3,0,.1.1.1.3,0,.3ZM10.6,24.5c0,.1-.2.1-.3.1-.1,0-.2-.2-.2-.3,0-.1.2-.2.3-.1.1,0,.2.2.2.3ZM11.7,24.5c0,.1-.1.2-.3.2-.2,0-.3,0-.3-.2,0-.1.1-.2.3-.2.2,0,.3,0,.3.2ZM12.7,24.4c0,.1,0,.2-.2.2-.2,0-.3,0-.3-.1,0-.1,0-.2.2-.2.2,0,.3,0,.3.1Z"/>
</svg>