<?xml version="1.0" encoding="UTF-8"?>
<svg id="Layer_1" xmlns="http://www.w3.org/2000/svg" version="1.1" viewBox="0 0 32 32">
  <!-- Generator: Adobe Illustrator 29.1.0, SVG Export Plug-In . SVG Version: 2.1.0 Build 142)  -->
  <defs>
    <style>
      .st0 {
        fill: #eabd5f;
      }
    </style>
  </defs>
  <path class="st0" d="M3,21.7l3-1.8c.6,1,1.1,1.9,2.4,1.9s2-.5,2-2.3V7.1h3.7v12.4c0,3.8-2.3,5.5-5.5,5.5-1.2,0-2.3-.2-3.3-.8-1-.6-1.8-1.5-2.3-2.5ZM16.1,21.4l3-1.7c.3.7.9,1.2,1.5,1.6.6.4,1.4.6,2.2.6,1.5,0,2.5-.8,2.5-1.8s-1-1.7-2.7-2.4l-.9-.4c-2.7-1.1-4.4-2.5-4.4-5.5s2.1-4.8,5.4-4.8c1.1,0,2.1.2,3.1.7.9.5,1.7,1.3,2.2,2.2l-2.9,1.8c-.2-.5-.5-.9-.9-1.1-.4-.3-.9-.4-1.4-.4-.2,0-.4,0-.7,0-.2,0-.4.2-.6.3-.2.1-.3.3-.4.5s-.1.4-.1.6c0,1.1.7,1.5,2.3,2.2l.9.4c3.2,1.3,4.9,2.7,4.9,5.7s-2.6,5.1-6.1,5.1-5.7-1.6-6.8-3.7Z"/>
</svg>