<?xml version="1.0" encoding="UTF-8"?>
<svg id="Layer_1" xmlns="http://www.w3.org/2000/svg" version="1.1" viewBox="0 0 32 32">
  <!-- Generator: Adobe Illustrator 29.1.0, SVG Export Plug-In . SVG Version: 2.1.0 Build 142)  -->
  <defs>
    <style>
      .st0 {
        fill: #82bc4f;
      }
    </style>
  </defs>
  <path class="st0" d="M26.6,8.8l-9.5-5.5c-.6-.3-1.4-.3-2,0l-9.6,5.5c-.6.4-1.1,1-1.1,1.7v11c0,.7.4,1.4,1.1,1.7l2.5,1.4c1.2.6,1.6.6,2.2.6,1.8,0,2.8-1.1,2.8-3v-10.9c0-.2,0-.4-.2-.4h-1.2c-.2,0-.5.2-.5.4v10.9c0,.8-.8,1.7-2.2,1l-2.6-1.5c0,0-.2-.1-.2-.3v-11c0-.1.1-.2.2-.3l9.6-5.5c0,0,.2,0,.3,0l9.4,5.5c0,0,0,.2,0,.3v11c0,.1,0,.2,0,.3l-9.5,5.5c0,0-.2,0-.3,0l-2.4-1.5c0,0-.2,0-.2,0-.7.4-.8.4-1.4.7-.2,0-.4.1,0,.4l3.2,1.9c.3.2.6.3,1,.3.4,0,.7,0,1-.3l9.4-5.5c.6-.4.9-1,.9-1.7v-11c0-.7-.3-1.4-.9-1.7ZM19.1,19.8c-2.5,0-3.1-.7-3.3-1.9,0-.1-.1-.3-.3-.3h-1.2c-.2,0-.3.2-.3.3,0,1.6.9,3.6,5,3.6s4.7-1.2,4.7-3.2-1.4-2.6-4.3-3c-3-.4-3.3-.6-3.3-1.3s.3-1.3,2.4-1.3,2.7.4,3,1.7c0,.1.1.2.3.2h1.2c0,0,.1,0,.2,0,0,0,0-.1,0-.2-.2-2.3-1.7-3.3-4.8-3.3s-4.3,1.1-4.3,3.1,1.6,2.7,4.2,2.9c3.1.3,3.4.8,3.4,1.4,0,1.1-.9,1.5-2.9,1.5Z"/>
</svg>